<svg xmlns="http://www.w3.org/2000/svg" width="45" height="45" viewBox="0 0 85.142 83.506"><defs><style>.a{fill:#f8f9fb;}.a,.b,.c,.d,.e{fill-rule:evenodd;}.b{fill:#486fbd;}.c{fill:#849cd4;}.d{fill:#043ca4;}.e{fill:#7494cc;}</style></defs><g transform="translate(-0.261)"><path class="a" d="M21.589,72.149a3.59,3.59,0,0,1-.993.979c-.188.111-.2.141-.235.65-.048.674.016.428-2.068,7.989-2.42,8.781-3.873,13.821-4.178,14.493a1.923,1.923,0,0,1-1.749,1.232c-.741.1-.768.125-.734.593.036.5-.012.483,1.448.4.892-.049,1.787-.051,2.884-.007,1.8.072,1.721.093,1.721-.445,0-.476.057-.435-.778-.553-1.453-.2-1.453-.108.034-6.2.638-2.615.68-2.741.97-2.89a38.919,38.919,0,0,1,5.673-.01c.311.13.358.278,1.152,3.646,1.295,5.492,1.307,5.209-.239,5.458-.731.118-.753.136-.719.6.036.5-.03.482,1.642.4a47.552,47.552,0,0,1,4.877.048l.466.039.07-.259c.159-.59.062-.708-.678-.828-1.6-.259-1.733-.518-3.179-6.355-.479-1.935-1.586-6.382-2.46-9.882s-1.742-7.022-1.929-7.825-.366-1.495-.4-1.535c-.161-.207-.31-.142-.6.262m-.568,4.666c.248.794,2.208,8.888,2.262,9.335.066.557.1.549-2.47.569-2.369.018-2.521,0-2.563-.294-.025-.174,1.932-7.652,2.43-9.286.178-.585.241-.645.341-.325m18.227.832c-4.8.749-7.9,5.328-7.675,11.361.269,7.292,5.274,11.463,11.571,9.642a6.147,6.147,0,0,0,1.705-.734,15.653,15.653,0,0,0,1.014-4.179c-.21-.341-.524-.167-.713.394-1.976,5.867-8.5,5.132-10.605-1.194a17.107,17.107,0,0,1,.03-9.9c1.18-3.281,3.9-5.015,6.868-4.385A4.625,4.625,0,0,1,44.8,82.58c.1.5.15.583.386.583.293,0,.326-.1.258-.782-.07-.7-.258-3.418-.258-3.735,0-.186-.023-.212-.211-.238-.116-.016-.556-.136-.977-.266a12.468,12.468,0,0,0-4.753-.494m13.279.362c-.672.035-2.075.157-2.276.2a.446.446,0,0,0-.263.587c.047.177.068.185.693.26,1.117.136,1.415.291,1.631.849.152.393.187,16.316.037,16.808-.192.632-.513.877-1.357,1.038-.928.177-.9.162-.919.451-.036.484-.071.477,1.857.405,1.112-.041,2.37-.041,3.6,0,2.126.071,2.088.078,2.088-.372,0-.331.039-.309-.771-.423-1.452-.2-1.767-.451-1.92-1.509-.117-.812-.086-16.912.033-17.082.288-.412,2.391-.372,3.44.064,1.8.749,2.687,2.41,2.611,4.887-.082,2.665-1.189,4.132-3.636,4.817-.675.189-.768.275-.662.609.124.392,2.9-.139,4.12-.787a5.732,5.732,0,0,0,2.247-7.627c-1.308-2.64-4.2-3.51-10.557-3.174m16.787.032c-2.452.111-2.695.162-2.695.561,0,.333.087.386.768.469,1.657.2,1.569-.317,1.569,9.321,0,9.543.07,9.1-1.468,9.357-1.091.183-1.029.156-1.051.45-.036.488-.083.478,1.955.407,1.163-.04,2.412-.04,3.507,0,1.883.07,1.864.073,1.862-.339,0-.315-.064-.353-.789-.484-.784-.141-1.023-.246-1.244-.543-.333-.449-.331-.428-.355-4.172l-.022-3.506.141-.114a5.261,5.261,0,0,1,2.179-.018c.664.2.742.3,2.625,3.48,2.339,3.948,3.429,5.152,5.168,5.709a6.991,6.991,0,0,0,3.28.161c.208-.066.165-.409-.056-.452a3.647,3.647,0,0,1-2.42-1.39,32.194,32.194,0,0,1-4.786-6.89c-.872-1.516-.868-1.49-.279-1.786,4.454-2.243,4.3-8.406-.251-9.83-1.45-.454-3.7-.569-7.64-.39m4.979.993c2.218.426,3.5,2.181,3.5,4.793,0,2.326-.813,3.723-2.506,4.317a12.25,12.25,0,0,1-3.814.094,79.329,79.329,0,0,1,.008-9.033,5.173,5.173,0,0,1,2.818-.17M44.032,108.8c.02.106.2.115,2.508.131,2.473.017,2.485.016,2.416-.114a21.29,21.29,0,0,0-4.924-.017m12.565-.07c-.206.206-.062.218,2.44.2,2.305-.016,2.485-.025,2.5-.131a34.822,34.822,0,0,0-4.945-.07m-11.915,1.11c.02.105.2.115,2.447.131,2.2.015,2.422.007,2.386-.087a.676.676,0,0,1-.04-.131c0-.015-1.083-.027-2.408-.027-2.258,0-2.406.007-2.386.114m11.4-.07c-.206.206-.06.218,2.375.2,2.244-.016,2.42-.025,2.44-.131a33.016,33.016,0,0,0-4.815-.07m-10.824,1.048c0,.192.189.208,2.488.208,2.1,0,2.328-.01,2.292-.1a.66.66,0,0,1-.039-.13c0-.015-1.067-.027-2.37-.027s-2.37.023-2.37.052m10.3.051a.66.66,0,0,0-.039.13c0,.015,1.067.027,2.37.027,2.327,0,2.37,0,2.37-.13a20.47,20.47,0,0,0-4.7-.027m-9.7,1.049c.02.106.186.116,2.348.132,2.192.016,2.325.01,2.3-.1s-.186-.116-2.348-.132c-2.192-.016-2.324-.011-2.3.1m9.249-.01a.66.66,0,0,0-.039.13c0,.015,1.034.027,2.3.027,2.363,0,2.377,0,2.377-.233a37.513,37.513,0,0,0-4.636.075m-15.236.988c0,.194.186.208,2.616.208,2.307,0,2.458-.007,2.438-.114a34.938,34.938,0,0,0-5.053-.095m6.507.062c.02.105.191.115,2.317.131,2.079.015,2.292.007,2.256-.087a.667.667,0,0,1-.04-.131c0-.015-1.025-.027-2.278-.027-2.134,0-2.276.007-2.256.114m8.3.016c-.069.129-.049.13,2.231.13,2.365,0,2.38,0,2.38-.233a29.952,29.952,0,0,0-4.611.1m6.117-.052a.258.258,0,0,0-.078.13c0,.029,1.09.052,2.422.052,2.39,0,2.578-.015,2.578-.208a45.1,45.1,0,0,0-4.923.026m-20.1,1.058a28.925,28.925,0,0,0,4.813.017,11.02,11.02,0,0,0-2.439-.1c-2.13-.015-2.408-.006-2.374.081m6.17,0c.032.084.345.1,2.269.1,1.957,0,2.227-.012,2.194-.1s-.345-.1-2.269-.1c-1.957,0-2.227.012-2.194.1m7.4,0c-.033.087.229.1,2.244.081a9.955,9.955,0,0,0,2.309-.1,25.894,25.894,0,0,0-4.554.017m5.91,0c-.033.085.248.1,2.291.1,1.99,0,2.34-.014,2.409-.1s-.19-.1-2.291-.1c-2.048,0-2.376.013-2.409.1m-18.81,1.039c.069.083.419.1,2.409.1,2.043,0,2.323-.012,2.291-.1s-.361-.1-2.409-.1c-2.1,0-2.362.011-2.291.1m5.975,0c0,.085.285.1,2.175.1s2.176-.013,2.176-.1-.285-.1-2.176-.1-2.175.013-2.175.1m6.536,0c-.033.085.237.1,2.194.1,1.924,0,2.237-.013,2.269-.1s-.237-.1-2.194-.1c-1.924,0-2.237.013-2.269.1m5.782-.054c-.132.132.157.152,2.255.152,1.983,0,2.3-.013,2.336-.1a34.157,34.157,0,0,0-4.591-.054m-17.708,1.093a26.486,26.486,0,0,0,4.6.017,10.29,10.29,0,0,0-2.352-.1c-2.069-.015-2.316-.006-2.243.081m5.781,0c0,.085.285.1,2.174.1,1.905,0,2.169-.012,2.136-.1s-.334-.1-2.173-.1c-1.855,0-2.136.013-2.136.1m5.821,0c-.033.085.234.1,2.162.1,1.895,0,2.2-.014,2.236-.1s-.234-.1-2.162-.1c-1.895,0-2.2.013-2.236.1M59.13,116a.161.161,0,0,0-.043.1,37.174,37.174,0,0,0,4.594-.061A39.161,39.161,0,0,0,59.13,116m-23.422.962a.569.569,0,0,0,.192.13,43.148,43.148,0,0,0,5.263.047c0-.194-.186-.208-2.805-.208-1.457,0-2.65.014-2.65.031m6.714.071a.676.676,0,0,1,.04.131c0,.015,1.01.027,2.245.027,2.1,0,2.244-.007,2.223-.114s-.189-.115-2.285-.131c-2.049-.015-2.259-.007-2.223.087m5.637.012c.02.105.183.115,2.155.131,1.931.016,2.129.007,2.093-.087a.676.676,0,0,1-.04-.131c0-.015-.952-.027-2.115-.027-1.98,0-2.114.007-2.094.114m5.222-.011a.67.67,0,0,0-.039.13c0,.015.979.027,2.175.027,2.132,0,2.176,0,2.176-.13a17.237,17.237,0,0,0-4.312-.027m5.459-.059c-.2.2-.056.218,2.213.2,2.089-.016,2.257-.026,2.278-.131a28.725,28.725,0,0,0-4.49-.07m5.8.087c-.069.129-.049.13,2.5.13S70,117.16,70,116.963a40.935,40.935,0,0,0-5.455.1m-27.406,1.007c.069.083.415.1,2.376.1,2.014,0,2.291-.012,2.258-.1s-.357-.1-2.376-.1c-2.072,0-2.33.011-2.258.1m5.715,0c0,.085.292.1,2.239.1,1.963,0,2.234-.012,2.2-.1s-.342-.1-2.238-.1c-1.913,0-2.2.013-2.2.1m5.5,0c.032.084.331.1,2.139.1,1.841,0,2.1-.012,2.064-.1s-.331-.1-2.139-.1c-1.841,0-2.1.012-2.064.1m4.7,0a22.817,22.817,0,0,0,4.27-.017c.021-.064-.431-.081-2.121-.081-1.875,0-2.148.012-2.148.1m5.325,0c0,.085.288.1,2.2.1,1.9,0,2.206-.014,2.239-.1s-.238-.1-2.2-.1c-1.946,0-2.238.013-2.238.1m5.563-.054c-.132.132.154.152,2.222.152,1.934,0,2.277-.014,2.346-.1a33.6,33.6,0,0,0-4.567-.054M37.98,119c0,.19.191.208,2.228.208,1.863,0,2.068-.01,2.033-.1a.659.659,0,0,1-.039-.13c0-.015-.95-.027-2.111-.027s-2.111.023-2.111.052m5.221.051a.66.66,0,0,1,.039.13c0,.015.979.027,2.176.027,2.132,0,2.175,0,2.175-.13s-.043-.13-2.215-.13c-1.993,0-2.211.01-2.176.1m5.43.027c0,.127.043.13,2.046.13s2.046,0,2.046-.13-.043-.13-2.046-.13-2.046,0-2.046.13m4.265-.087c-.2.2-.052.219,2.05.2,1.934-.016,2.1-.026,2.116-.131a24.73,24.73,0,0,0-4.166-.07m5.2,0c-.2.2-.055.218,2.148.2,2.027-.016,2.192-.026,2.213-.131a27.08,27.08,0,0,0-4.36-.07m5.39,0c-.2.2-.045.217,1.989.217,2,0,2.189-.018,2.189-.208,0-.062-4.116-.071-4.178-.009" transform="translate(-8.941 -56.472)"/><path class="b" d="M38.236,79.761c0,.161.013.226.028.146a.921.921,0,0,0,0-.292c-.016-.08-.028-.014-.028.146M57.912,83.7a.53.53,0,0,0,.227,0c.062-.016.012-.03-.114-.03s-.176.013-.114.03m15.069.393c.243.013.623.013.844,0s.023-.023-.441-.023-.646.011-.4.023m17.532,0a7.154,7.154,0,0,0,.747,0c.205-.013.037-.023-.373-.023s-.579.011-.373.023m-3.019.063a.709.709,0,0,0,.26,0c.062-.016,0-.029-.147-.028s-.194.014-.113.029m-24.388.734c0,.125.013.176.03.114a.531.531,0,0,0,0-.227c-.016-.062-.03-.011-.03.114m16.74.864a1.62,1.62,0,0,0,.211.211l.211.191-.191-.211c-.178-.2-.231-.241-.231-.191m6.968,1.928c0,.2.012.277.027.179a1.429,1.429,0,0,0,0-.357c-.015-.1-.027-.018-.027.178M81.62,90.022c0,.232.012.327.026.211a2.086,2.086,0,0,0,0-.422c-.014-.116-.026-.021-.026.211M51.742,93.431c0,.143.014.194.03.113a.711.711,0,0,0,0-.26c-.016-.062-.029,0-.028.147m-2.337,1.137c0,.161.013.226.028.146a.921.921,0,0,0,0-.292c-.015-.08-.028-.014-.028.146m-12.085-.081c.7.01,1.872.01,2.6,0s.15-.019-1.278-.019-2.022.009-1.319.019m14.42.341c0,.125.013.176.03.114a.531.531,0,0,0,0-.227c-.016-.062-.03-.011-.03.114m35.073,6.559c0,.2.012.277.027.178a1.429,1.429,0,0,0,0-.357c-.015-.1-.027-.018-.027.179M52.44,102.977a1.42,1.42,0,0,0,.253.227c.018,0-.067-.1-.188-.227a1.414,1.414,0,0,0-.253-.227c-.018,0,.067.1.188.227m47.729.114c.269.287.327.338.327.289a3.655,3.655,0,0,0-.308-.308l-.308-.29.289.309m-2.987.325c.269.287.327.338.327.289a3.656,3.656,0,0,0-.308-.308l-.308-.289.289.308m-61.547.763c0,.125.013.176.03.114a.531.531,0,0,0,0-.227c-.016-.062-.03-.011-.03.114m5.975,0c0,.125.013.176.03.114a.537.537,0,0,0,0-.227c-.016-.062-.03-.011-.03.114m3.411.436a.92.92,0,0,0,.292,0c.08-.015.014-.028-.146-.028s-.226.013-.146.028m-10.618.064a.537.537,0,0,0,.227,0c.063-.016.012-.03-.114-.03s-.176.013-.114.03m34.484.13a.53.53,0,0,0,.227,0c.063-.016.012-.03-.114-.03s-.176.013-.114.03m5.293,0a.71.71,0,0,0,.26,0c.062-.016,0-.029-.147-.028s-.194.014-.113.03m11.137,0a.531.531,0,0,0,.227,0c.062-.016.011-.03-.114-.03s-.176.013-.114.03m5.2,0a.53.53,0,0,0,.227,0c.063-.016.012-.03-.114-.03s-.176.013-.114.03m-32.033,15.2c0,.044,1.926.043,4.059,0,.464-.01-.259-.025-1.607-.032s-2.452.008-2.452.035m7.318,0c.614.011,1.637.011,2.273,0s.134-.019-1.116-.019-1.771.009-1.157.019m7.164,0c2.052.046,3.817.047,3.789,0-.017-.027-1.059-.042-2.316-.035s-1.92.022-1.473.032m6.32,0c.672.011,1.753.011,2.4,0s.1-.019-1.222-.019-1.853.009-1.181.019m-4.891.211-2.305.035,2.285.015a17.19,17.19,0,0,0,2.325-.05c.022-.036.031-.058.02-.05s-1.058.031-2.325.05m-14.531.049c.67.01,1.766.01,2.435,0s.122-.019-1.218-.019-1.887.009-1.218.019m6,0c.614.011,1.637.011,2.273,0s.134-.019-1.116-.019-1.771.009-1.157.019m13.317,0c.652.011,1.719.011,2.37,0s.119-.019-1.185-.019-1.837.009-1.185.019m-18.8.779c.672.01,1.753.01,2.4,0s.1-.019-1.222-.019-1.853.009-1.181.019m5.873,0c.616.011,1.624.011,2.24,0s.112-.019-1.12-.019-1.736.009-1.12.019m6.62,0c.614.011,1.637.011,2.273,0s.134-.019-1.116-.019-1.771.009-1.157.019m5.853,0c.654.01,1.706.01,2.338,0s.1-.019-1.189-.019-1.8.009-1.148.019m-4.761.211-2.273.035,2.253.015a16.707,16.707,0,0,0,2.293-.05c.022-.036.031-.058.02-.05s-1.043.031-2.293.05m5.812,0-2.37.035,2.35.015a18.083,18.083,0,0,0,2.391-.05c.022-.036.031-.058.02-.05s-1.087.031-2.391.05m-19.3.049c.652.011,1.719.011,2.37,0s.119-.019-1.185-.019-1.837.009-1.185.019m5.873,0c.6.011,1.59.011,2.208,0s.131-.019-1.084-.019-1.72.009-1.124.019M56.13,124.1c.654.011,1.706.011,2.338,0s.1-.019-1.189-.019-1.8.009-1.149.019m5.642,0c.614.011,1.637.011,2.273,0s.134-.019-1.116-.019-1.771.009-1.157.019m5.5,0c.6.011,1.565.011,2.143,0s.087-.02-1.092-.02-1.652.009-1.051.02m4.737,0c.6.011,1.577.011,2.176,0s.109-.019-1.088-.019-1.686.009-1.088.019m5.354,0c.614.011,1.637.011,2.273,0s.134-.019-1.116-.019-1.771.009-1.157.019m4.479,0c-.027.045,1.807.043,3.854,0,.447-.01-.231-.024-1.506-.032s-2.331.008-2.348.035m-15.572.228c.027.027,1,.042,2.156.032l2.106-.017-2.156-.032c-1.186-.018-2.134-.01-2.107.017m-9.976.032c.634.01,1.671.01,2.305,0s.115-.019-1.153-.019-1.787.009-1.153.019m5.617,0c.616.011,1.624.011,2.24,0s.112-.019-1.12-.019-1.736.009-1.12.019m10.1,0c.6.011,1.565.011,2.143,0s.087-.019-1.092-.019-1.652.009-1.051.02m5.285,0c.614.011,1.637.011,2.273,0s.134-.019-1.116-.019-1.771.009-1.157.019m5.557,0c.634.01,1.671.01,2.305,0s.115-.019-1.153-.019-1.787.009-1.153.019" transform="translate(-26.843 -62.616)"/><path class="c" d="M48.417,98.806a.531.531,0,0,0,.227,0c.062-.016.011-.03-.114-.03s-.176.013-.114.03m12.177.456a.71.71,0,0,0,.26,0c.062-.016,0-.029-.147-.028s-.194.014-.113.029m17.469,0a.933.933,0,0,0,.292,0c.08-.016.014-.028-.146-.028s-.226.013-.146.028m-50.427,8.7c.6.011,1.577.011,2.176,0s.109-.019-1.088-.019-1.686.009-1.088.019m37.277,3.049a.537.537,0,0,0,.227,0c.062-.016.011-.03-.114-.03s-.176.013-.114.03m-43.056,8.7a1.429,1.429,0,0,0,.357,0c.1-.015.018-.027-.179-.027s-.277.012-.178.027m.91,0a1.163,1.163,0,0,0,.325,0c.08-.016,0-.028-.179-.027s-.244.013-.145.028m11.559,0a2.816,2.816,0,0,0,.487,0c.134-.014.024-.025-.244-.025s-.378.011-.243.025m1.5,0a4.24,4.24,0,0,0,.585,0c.151-.014.011-.025-.311-.025s-.445.012-.274.025m25.228.13c.366.012.965.012,1.331,0s.067-.021-.666-.021-1.032.009-.666.021m16.5,0c.368.012.952.012,1.3,0s.045-.021-.669-.021-1,.01-.63.021m-18.934.061a.53.53,0,0,0,.227,0c.063-.016.012-.03-.114-.03s-.176.013-.114.03m6.138,0a.709.709,0,0,0,.26,0c.062-.016,0-.029-.147-.028s-.194.014-.113.03m10.228,0a.53.53,0,0,0,.227,0c.062-.016.012-.03-.114-.03s-.176.013-.114.03m6.04,0a.53.53,0,0,0,.227,0c.063-.016.012-.03-.114-.03s-.176.013-.114.03M50.674,137.188c2.048.046,3.882.047,3.854,0-.017-.027-1.073-.042-2.348-.035s-1.952.022-1.506.032m5.043,0a9.466,9.466,0,0,0,1.376.032c2.647-.031,2.9-.053.777-.067-1.168-.008-2.137.008-2.153.035m6.955,0c.616.011,1.624.011,2.24,0s.112-.019-1.12-.019-1.736.009-1.12.019m5.617,0c.634.011,1.671.011,2.305,0s.115-.019-1.153-.019-1.787.009-1.153.019" transform="translate(-16.959 -77.72)"/><path class="d" d="M.725,31.5v31.5H42.807c23.145,0,42.082-.015,42.082-.033s-.289-.611-.642-1.316a67.042,67.042,0,0,1-3.926-50.507A63.67,63.67,0,0,1,84.585.73c.2-.366.369-.681.369-.7S66,0,42.84,0H.725V31.5m12.49-16.154a5.762,5.762,0,0,1,.441,1.5c.534,2.295,5.291,21.32,5.482,21.925.512,1.619.923,2.046,2.128,2.214.668.093.725.15.68.688-.038.459-.037.458-.83.405-.866-.058-4.336-.061-5.348,0-.855.048-.851.048-.948-.206-.216-.568-.051-.761.76-.894,1.462-.239,1.451.007.236-5.147-.817-3.464-.9-3.75-1.126-3.871a37.362,37.362,0,0,0-5.807.067c-.21.165-.205.15-1.011,3.47-1.323,5.45-1.33,5.338.352,5.525.543.06.692.25.584.742-.077.349-.129.366-.98.305-.651-.046-4.524-.019-4.928.034-.181.024-.335-.457-.253-.788l.058-.234L3.3,41c1.513-.187,1.649-.38,2.628-3.7,2.509-8.509,5.448-19.331,5.448-20.064v-.459l.247-.139A4.564,4.564,0,0,0,12.731,15.5c.155-.253.3-.3.484-.162M11.706,20.9c-.462,1.562-2.344,8.783-2.344,9,0,.317-.071.308,2.445.308s2.491,0,2.491-.418c0-.293-1.779-7.762-2.247-9.437-.072-.259-.134-.16-.344.552m20.785.215a15.456,15.456,0,0,1,2.893.615,7.893,7.893,0,0,0,.772.225c.116,0,.157.158.158.606,0,.355.12,2.157.236,3.564.041.495.039.5-.13.579-.338.154-.459.018-.624-.7-.789-3.44-3.8-4.9-6.915-3.357-5.327,2.634-5.352,15.134-.035,18.2,3.07,1.772,6.2.4,7.346-3.228.25-.793.827-.766.745.036a17.28,17.28,0,0,1-.938,3.7,4.805,4.805,0,0,1-2.445,1.029C27.665,43.734,23.016,39.7,22.615,32.9c-.426-7.227,3.906-12.4,9.876-11.786m15.535.388c3.313.2,5.138,1.154,6.148,3.212a5.682,5.682,0,0,1-2.438,7.724c-1.173.572-3.582,1.076-3.9.816a.381.381,0,0,1,.178-.651c2.621-.672,3.756-1.922,4.024-4.431.281-2.628-.822-4.731-2.833-5.406a4.876,4.876,0,0,0-3.078-.064l-.175.151-.019,7.782c-.027,11.008-.135,10.383,1.84,10.652.89.122.939.146.938.466,0,.453.267.423-3.825.427l-3.705,0L41.111,42a.422.422,0,0,1,.367-.647c2.185-.342,2.04.334,2.041-9.531,0-9.548.106-8.955-1.625-9.181-.794-.1-.9-.165-.9-.5,0-.473.426-.559,3.182-.641a32.593,32.593,0,0,1,3.855,0m18.547.1c3.224.445,4.9,2.2,4.9,5.126a5.369,5.369,0,0,1-3.106,5.041c-.652.339-.653.335.192,1.791,3.209,5.536,5.092,7.786,6.865,8.2,1.606.378-.273.939-2.085.623-2.281-.4-3.438-1.553-6.121-6.111-1.965-3.339-1.944-3.318-3.438-3.389-.891-.042-1.278.035-1.336.267-.1.409.012,6.754.128,7.116.215.667.548.876,1.669,1.048.6.093.712.211.585.64l-.068.227-3.623,0-3.623,0-.055-.223c-.1-.413.016-.559.489-.611,2.165-.237,2.061.237,2.061-9.418,0-9.47.07-9.056-1.577-9.287a1.965,1.965,0,0,1-.7-.175.852.852,0,0,1,.026-.652c.233-.3,6.97-.462,8.813-.207m-3.461.938c-.718.092-.656-.321-.678,4.563-.022,4.833-.034,4.633.3,4.7a16.426,16.426,0,0,0,3.277-.065c1.923-.479,2.937-2.178,2.819-4.722-.147-3.184-2.35-4.91-5.716-4.48M40.015,52.24a.66.66,0,0,0,.039.13c.035.093-.208.1-2.468.1-1.379,0-2.507-.012-2.507-.027a.66.66,0,0,0-.039-.13c-.036-.093.208-.1,2.468-.1,1.379,0,2.507.012,2.507.027m12.664,0c0,.232,0,.233-2.6.233-1.389,0-2.526-.012-2.526-.027,0-.232,0-.233,2.6-.233,1.389,0,2.526.012,2.526.027M40.6,53.382c.069.129.049.13-2.4.13-1.359,0-2.47-.012-2.47-.027a.664.664,0,0,0-.039-.13,22.379,22.379,0,0,1,4.91.027m11.43-.1c0,.232-.006.233-2.54.233-1.354,0-2.461-.012-2.461-.027,0-.232.006-.233,2.54-.233,1.354,0,2.461.012,2.461.027m-10.91,1.142c.069.129.049.13-2.333.13-2.336,0-2.4,0-2.472-.13s-.049-.13,2.333-.13c2.336,0,2.4,0,2.472.13m10.261-.1c0,.232-.01.233-2.477.233-2.378,0-2.4,0-2.329-.13a32.522,32.522,0,0,1,4.806-.1m-9.806,1.039a.675.675,0,0,0,.039.13c.036.093-.2.1-2.338.1-1.308,0-2.377-.012-2.377-.027a.66.66,0,0,0-.039-.13c-.036-.093.2-.1,2.338-.1,1.308,0,2.377.012,2.377.027m9.209.086c-.02.106-.194.115-2.378.131-2.343.017-2.356.016-2.286-.114a19.121,19.121,0,0,1,4.664-.017M35.988,56.4a.66.66,0,0,0,.039.13,24.17,24.17,0,0,1-5.105-.027c-.069-.129-.049-.13,2.5-.13,1.412,0,2.567.012,2.567.027m6.04.1c.069.129.049.13-2.271.13-1.287,0-2.34-.012-2.34-.027a.664.664,0,0,0-.039-.13,20.081,20.081,0,0,1,4.65.027m8.313,0a22.087,22.087,0,0,1-4.676.043c0-.166.1-.173,2.416-.173s2.329,0,2.26.13m6.429,0c-.068.126-.136.13-2.57.13-2.48,0-2.5,0-2.431-.13s.136-.13,2.57-.13c2.48,0,2.5,0,2.431.13m-20.2.97a.627.627,0,0,1,.067.162c0,.02-1.072.037-2.381.037-2.462,0-2.619-.016-2.619-.27a30.446,30.446,0,0,1,4.933.071m5.835.053.021.146H40.188c-2.346,0-2.317,0-2.317-.266a18.545,18.545,0,0,1,2.257-.043l2.257.017.021.146m7.5-.137c.023.022.012.1-.024.162a18.984,18.984,0,0,1-4.606,0,.281.281,0,0,1,.043-.162c.055-.055,4.532-.057,4.587,0m6.085.043c0,.229-.119.24-2.481.24a20.747,20.747,0,0,1-2.325-.06c0-.269-.037-.265,2.442-.265a8.877,8.877,0,0,1,2.363.084M37.118,58.486a.6.6,0,0,1,.039.162,39.023,39.023,0,0,1-4.728-.018c-.237-.237-.149-.247,2.286-.247,2.1,0,2.368.012,2.4.1m5.65,0a.6.6,0,0,1,.039.162,33.856,33.856,0,0,1-4.4-.018c-.236-.236-.142-.247,2.123-.247,1.947,0,2.206.012,2.241.1m6.652.043-.021.146-2.257.017a18.55,18.55,0,0,1-2.257-.043c0-.269-.029-.266,2.317-.266H49.44l-.021.146m5.91,0-.021.146-2.354.017c-1.295.009-2.354,0-2.354-.02,0-.288,0-.289,2.442-.289H55.35l-.021.146m-17.7,1.024c.034.129.011.13-2.313.114-2.176-.016-2.349-.025-2.369-.131a19.238,19.238,0,0,1,4.683.017m5.436-.1a.671.671,0,0,0,.04.131c.036.094-.169.1-2.159.086-2.034-.016-2.2-.026-2.22-.131s.117-.114,2.158-.114c1.2,0,2.18.012,2.18.027m5.975.1c0,.127-.043.13-2.241.13-2.247,0-2.4-.015-2.2-.217a25.074,25.074,0,0,1,4.438.087m5.78-.1c0,.232-.013.233-2.412.233-2.313,0-2.333,0-2.264-.13a30.8,30.8,0,0,1,4.676-.1m-22.6,1.142c.069.129.049.13-2.534.13s-2.986-.032-2.986-.229a41.911,41.911,0,0,1,5.52.1m5.78-.1a.66.66,0,0,0,.039.13,19.537,19.537,0,0,1-4.585-.027c-.069-.129-.049-.13,2.238-.13,1.269,0,2.308.012,2.308.027m5.409.1c.033.128,0,.13-2.136.13-1.193,0-2.169-.012-2.169-.027a.66.66,0,0,0-.039-.13c-.035-.092.179-.1,2.136-.1,2.12,0,2.176,0,2.209.13m5.294-.016a17.027,17.027,0,0,1-4.4.017c0-.129.038-.131,2.213-.131,2.072,0,2.211.007,2.191.114m5.662-.086c0,.231-.015.233-2.378.233-1.264,0-2.3-.012-2.3-.027,0-.231.015-.233,2.377-.233,1.264,0,2.3.012,2.3.027m6.754,0a.569.569,0,0,1-.192.13,45.3,45.3,0,0,1-5.393.047c0-.194.186-.208,2.871-.208,1.493,0,2.715.014,2.715.031M32.793,61.513c.236.236.144.247-2.174.247s-2.489-.018-2.489-.27a39.61,39.61,0,0,1,4.663.023m5.586.1.021.146H36.2c-2.235,0-2.355-.012-2.355-.241,0-.069.428-.082,2.257-.068l2.257.017.021.146m5.26,0,.021.147-2.132-.017L39.4,61.727l-.021-.147-.021-.147,2.132.017,2.132.017.021.147m4.741-.033-.021.146-2.107.017c-2.1.017-2.253,0-2.175-.2.038-.1.244-.108,2.182-.108H48.4l-.021.146m5.532-.086c0,.268.028.265-2.312.265a19.119,19.119,0,0,1-2.234-.06c0-.268-.028-.265,2.312-.265a19.121,19.121,0,0,1,2.234.06m5.715-.016c0,.267-.125.281-2.478.281-1.244,0-2.263-.016-2.263-.037,0-.288,0-.288,2.438-.288,1.267,0,2.3.02,2.3.043M33.313,62.62c.02.106-.113.114-2.08.114-2.069,0-2.258-.017-2.258-.209a25.78,25.78,0,0,1,4.339.1m5.39,0c.02.106-.12.114-2.223.114-2.207,0-2.245,0-2.245-.131a17.522,17.522,0,0,1,4.469.017m5.143-.016c0,.127-.043.13-2.111.13s-2.111,0-2.111-.13.043-.13,2.111-.13,2.111,0,2.111.13m4.305,0c-.033.126-.089.13-2.137.13s-2.1,0-2.1-.13.043-.13,2.137-.13,2.137,0,2.1.13m5.39,0a28.37,28.37,0,0,1-4.5.1c0-.231.018-.233,2.306-.233,2.2,0,2.227,0,2.194.13m5.241-.078c0,.19-.191.208-2.254.208-1.154,0-2.1-.012-2.1-.027,0-.23.023-.233,2.215-.233,1.175,0,2.136.023,2.136.052m-29.224.959c0,.284.03.288,2.145.288a15.605,15.605,0,0,0,2.011-.06c0-.267.015-.265-2.117-.265-1.121,0-2.039.017-2.039.037m4.936.022c0,.269-.027.266,2.284.266h2.206l-.021-.146-.021-.146-2.224-.017a17.966,17.966,0,0,0-2.224.043m5.337.087.021.146,4.043.017,4.043.017v-.326H39.811l.021.146m8.99-.043a.593.593,0,0,0-.039.163,17.965,17.965,0,0,0,2.224.043l2.224-.017.021-.146.021-.146H51.066c-1.951,0-2.21.012-2.245.1m5.286-.043a.592.592,0,0,1-.039.162c-.035.092.165.1,1.978.1,2.123,0,2.152,0,2.152-.288,0-.02-.921-.037-2.046-.037a16.142,16.142,0,0,0-2.046.06m-2.468.541a.237.237,0,0,0,.142.212c.431.195.211.226-1.565.226-1.716,0-1.759,0-1.759.13s.043.13,1.818.13h1.818v.909H48.782v-.35c0-.435.2-.4-2.224-.379-2.068.019-2.077.021-1.737.339.359.336.287.39-.521.39-.66,0-.735-.013-.967-.166-.659-.436-1.048-.507-2.911-.534-1.892-.026-1.93-.017-1.51.375.342.32.321.325-1.461.325H35.793v-.319c0-.409.159-.383-2.111-.346-2.075.034-2.2.055-1.866.315s.282.35-.242.35c-.5,0-.548-.081-.209-.363.29-.241.146-.287-.9-.287s-1.191.047-.886.29a.839.839,0,0,1,.238.362,34.61,34.61,0,0,1-.011,4.42,1.441,1.441,0,0,1-2.72-.161,19,19,0,0,1-.051-2.368l.021-2.036.179-.142c.34-.271.256-.3-.861-.3-1.133,0-1.194.024-.834.324l.206.172.05.937c.028.515.052,1.5.054,2.2.005,1.673.062,1.889.649,2.478a2.97,2.97,0,0,0,3.791.187l.292-.258h.747c.786,0,.984.13.52.342-.087.04-.147.116-.136.173.017.09.264.1,2.046.119l2.026.017.043-.326.043-.326h1.648c.906,0,1.648.016,1.648.036a1.01,1.01,0,0,1-.2.222c-.423.386-.319.412,1.455.362,1.724-.049,2.137-.114,2.693-.428.348-.2,1.9-.3,1.9-.132,0,.074-.164.243-.27.279-.044.014-.059.074-.036.136.038.1.225.11,2.058.11h2.015V71.55a1.406,1.406,0,0,1,.04-.292l.039-.146,1.6,0,1.6,0-.211.192c-.393.357-.156.453,1.12.452.931,0,1.127-.111.755-.424-.275-.232-.333-.573-.333-1.982V68.106l.3.041c.166.023.622.041,1.014.041h.713l.208.227c.305.333.426.305.426-.1v-.325h.779v.779H55.179c-1.613,0-1.656,0-1.656.13s.043.13,1.656.13h1.656v.779H55.2c-1.46,0-1.626.011-1.591.1a.675.675,0,0,1,.039.13c0,.015.716.027,1.591.027h1.591v.779H55.3c-1.371,0-1.529.011-1.493.1a.67.67,0,0,1,.039.13c0,.015.658.027,1.461.027,1.506,0,1.593.017,1.291.254-.346.272-.19.33.882.33,1.091,0,1.156-.033.8-.407-.2-.212-.258-1.022-.27-4.024L58,65.853l.169-.042a1.842,1.842,0,0,1,1.708.452c.549.888-.071,1.731-1.272,1.731-.53,0-.472.123,1.324,2.8.675,1,.589.977,2.731.873,1.156-.056,1.253-.086,1.023-.317-.146-.146-.115-.342.151-.951l.24-.552,1.208-.018,1.207-.018.168.375c.286.638.351.964.221,1.108-.311.344-.231.363,1.3.317.777-.023,1.654-.043,1.948-.043.535,0,.776-.144.4-.242-.317-.083-.353-.3-.375-2.289l-.021-1.849.136.123c.075.068,1.049,1.112,2.164,2.321A14.36,14.36,0,0,0,74.6,71.811c.128-.017.129-.057.1-2.88-.029-3.32-.013-3.546.269-3.809.3-.28.191-.315-.9-.3-.81.015-.969.034-.969.116,0,.054.066.107.147.118.314.045.352.268.387,2.311l.033,1.889-.163-.162c-.09-.089-1.074-1.156-2.187-2.37a30.442,30.442,0,0,0-2.133-2.208c-.1,0-.109.246-.109,3.226,0,3.2,0,3.228-.139,3.409-.357.472-.469.292-2.108-3.37-1.276-2.852-1.416-3.135-1.555-3.135s-.276.283-1.585,3.3c-1.58,3.642-1.594,3.667-1.935,3.3-.174-.186-1.73-2.386-1.781-2.52-.017-.045.065-.109.192-.151a1.939,1.939,0,0,0,.129-3.459l-.436-.215-1.707-.02c-1.9-.022-1.953-.009-1.58.364.4.4.372.4-1.353.4-1.5,0-1.552,0-1.585.13s0,.13,1.584.13h1.617V66.7h-.39c-.216,0-.39-.029-.39-.065s-.058-.065-.13-.065-.13.029-.13.065a4.17,4.17,0,0,1-1.136.065c-1.093,0-1.137,0-1.137.13s.045.13.958.136c.581,0,.894.027.8.059a6.9,6.9,0,0,1-1.023.058l-.861.006V64.942h.958c1.136,0,1.4.058,1.546.331.161.311.317.226.341-.184l.02-.338.726-.018c.632-.016.729-.033.748-.132s-.049-.114-.726-.114h-.748l-.02-.276-.02-.276-2.289-.017L51.639,63.9v.148M.27,64.285a.257.257,0,0,0,.129.2c.326.174.33.223.311,3.606l-.018,3.15-.252.231c-.359.329-.31.343,1.39.392a6.061,6.061,0,0,0,2.721-.241,2.182,2.182,0,0,0,.332-3.749l-.369-.246.289-.252a1.826,1.826,0,0,0-.522-3l-.407-.188-1.8-.021c-1.776-.02-1.8-.019-1.8.111m29.755.314c.02.106.169.116,1.991.132,1.851.016,1.967.01,1.946-.1s-.169-.116-1.991-.132c-1.851-.016-1.967-.01-1.947.1m4.729.017c0,.127.043.13,2.273.13s2.273,0,2.273-.13-.043-.13-2.273-.13-2.273,0-2.273.13m5.208-.016c.02.107.265.115,3.881.13,3.888.017,3.959.013,3.964-.2,0-.027-1.769-.049-3.933-.049-3.712,0-3.933.006-3.912.114m37.452.236c-3,1.058-2.932,5.966.091,6.867a5.507,5.507,0,0,0,2.725-.057l.34-.113.074-.422c.134-.762.064-1-.229-.788A2.547,2.547,0,0,1,76.689,67a2.428,2.428,0,0,1,3.486-.991c.451.306.493.261.493-.525V64.8l-.243.04a2.456,2.456,0,0,1-.7-.058,5.234,5.234,0,0,0-2.312.054m-65.036-.018c-.024.039-.023,1.438,0,3.109.05,3.182.039,3.365-.226,3.605-.322.291-.375.2-2.2-3.89-1.161-2.6-1.347-2.948-1.5-2.793-.037.037-.7,1.541-1.483,3.343C5.755,71.006,5.53,71.48,5.38,71.553c-.225.109-.223.248,0,.293.713.142,1.916-.1,1.567-.317-.111-.069-.031-.464.2-.977l.207-.462.434-.041c.239-.023.777-.041,1.2-.042H9.75l.156.308a5.455,5.455,0,0,1,.272.682l.117.373-.148.158c-.265.282-.181.3,1.881.3,1.856,0,1.945-.006,1.945-.121a.171.171,0,0,0-.124-.154c-.313-.082-.355-.339-.381-2.321l-.025-1.851.223.227c.122.125,1.108,1.186,2.189,2.357a19.7,19.7,0,0,0,2.072,2.11c.1-.018.109-.34.138-3.289l.032-3.269.179-.142c.338-.27.255-.3-.828-.3-1.039,0-1.251.063-.841.25.326.149.357.364.339,2.33l-.017,1.8L14.764,67.1c-2.055-2.233-2.281-2.45-2.386-2.281m69.67-.023c-.961.022-1.108.075-.806.289s.3.248.3,3.224v2.815l-.188.15c-.421.336-.306.357,1.9.357h2.008l.04-.146a6.59,6.59,0,0,0,.083-.747c.046-.67.007-.728-.28-.406-.231.259-.5.324-1.357.324-.963,0-.914.059-.968-1.16l-.045-1,.833.027c.857.028,1.054.08,1.259.333.248.307.321.117.321-.832,0-1.012-.058-1.122-.4-.757-.233.25-.288.262-1.242.285l-.765.018.018-.909.018-.909.927-.018.927-.018.236.229c.383.373.418.332.4-.469l-.018-.7-1.137,0c-.625,0-1.553.007-2.062.018m-61.141.183a3.6,3.6,0,0,0-2.015,5.245,3.2,3.2,0,0,0,3.049,1.732,1.512,1.512,0,0,1,1.077.3c1.8,1.021,2.044,1.062,2.693.454.311-.291.285-.433-.077-.417-.431.019-1.878-.7-1.688-.838,2.461-1.786,1.774-5.976-1.069-6.515a6.482,6.482,0,0,0-1.97.035m-17.556.231A.984.984,0,0,1,4.03,66.4c-.149.553-.641.825-1.519.842l-.455.009-.018-1.055L2.02,65.137h.537a3.941,3.941,0,0,1,.793.072m19.569.835c1.42.621,1.775,3.016.633,4.279a2.275,2.275,0,0,1-3.683-.76,4.137,4.137,0,0,1,.008-2.315,2.277,2.277,0,0,1,3.042-1.2m25.472.068c.216.259.39.259.39,0v-.195h3.377V66.7H50.178c-1.938,0-1.981,0-1.981.13s.043.13,1.981.13h1.981v.779H48.587v-.292c0-.35-.093-.377-.326-.095-.207.251-.488.318-1.346.32h-.666v-.714H46.9c.606,0,.65-.009.65-.13s-.043-.13-.65-.13h-.649V65.92l.7-.024c1.089-.037,1.256-.013,1.445.215m-16.3.194v.39H31.053v-.779h1.039v.389M35.4,66.16c.239.286.394.28.394-.016v-.227H39.17V66.7H37.125c-2,0-2.046,0-2.046.13s.043.13,2.046.13H39.17v.779H35.664v-.229c0-.325-.157-.363-.383-.093-.2.241-.5.306-1.452.316l-.5.006v-.187a2.4,2.4,0,0,0-.041-.39l-.041-.2h.521c.49,0,.519-.008.488-.13s-.089-.13-.514-.13h-.479v-.346c0-.46-.037-.445,1.029-.421l.933.021.176.211m6.856-.036a2.363,2.363,0,0,1,.515.37l.191.2H40.339v-.352c0-.434-.011-.428.877-.407a1.892,1.892,0,0,1,1.039.187m2.825.182v.39h-.355c-.326,0-.364-.015-.452-.187a2.6,2.6,0,0,0-.267-.39l-.171-.2H45.08v.389M66.1,68.882a7.079,7.079,0,0,1-.836.007l-.811-.018.427-1.058.426-1.058.41,1.05a10.117,10.117,0,0,1,.384,1.076M32.092,67.345v.39H31.053v-.779h1.039v.39m11.163-.211c.04.1.1.273.133.39l.06.211H40.339v-.779h2.842l.073.179m1.826.211v.39h-.219c-.2,0-.222-.018-.26-.244-.023-.134-.059-.309-.081-.39-.037-.136-.02-.146.26-.146h.3v.39m11.754,0v.39h-.779v-.779h.779v.39M9,69.085c-.228.01-.6.01-.831,0l-.416-.019.356-.877c.2-.482.386-.95.423-1.039.061-.147.107-.062.475.877l.408,1.039L9,69.085m23.094-.7v.39H31.053v-.779h1.039v.39m7.079,0v.39H35.664v-.779H39.17v.39m4.286,0v.39H40.339v-.779h3.117v.39m1.624,0v.39h-.39v-.779h.39v.39m7.079,0v.39H48.587v-.779h3.572v.39M3.147,68.32c1.758.254,1.864,2.219.137,2.538-1.11.205-1.261.038-1.261-1.4,0-1.335-.028-1.306,1.123-1.14M35,68.744a.168.168,0,0,1,.081.158c0,.1.042.132.158.132a.271.271,0,0,1,.2.071c.031.051.063.051.114,0a9.791,9.791,0,0,1,1.844-.071H39.17v.779H37.06c-2.067,0-2.111,0-2.111.13s.043.13,2.143.13h2.143v.779H35.923v-.26c0-.271-.2-.385-.283-.163-.1.268-.429.357-1.311.357-.959,0-1-.019-1-.432v-.276l.405-.019c.62-.029.639-.247.022-.247h-.427v-.779h.455c.411,0,.454-.012.454-.13s-.047-.131-.471-.14c-.444-.01-.453-.012-.146-.049a6.911,6.911,0,0,1,1.38.03m13.033-.037a.225.225,0,0,1,.166.195c0,.093.043.132.146.133.08,0,.972,0,1.981,0l1.835,0v.783H50.21c-1.071,0-1.948.012-1.948.027,0,.229.035.233,1.991.233h1.912l-.019.373-.02.373-1.607.017-1.607.017V70.56c0-.3-.192-.435-.283-.2-.1.268-.429.357-1.311.357-.948,0-1-.022-1-.4v-.247h.617c.574,0,.617-.009.617-.13s-.043-.13-.617-.13h-.617v-.779H46.9c.541,0,.585-.01.585-.13s-.043-.13-.585-.13c-.346,0-.584-.026-.584-.065a5.76,5.76,0,0,1,1.717,0m-15.939.716v.39H31.053v-.779h1.039v.389m11.3-.3a2.1,2.1,0,0,1-.1.39l-.1.3H41.8c-1.548,0-1.462.029-1.462-.492v-.287h1.526c1.222,0,1.526.017,1.526.086m1.689.3v.39h-.3c-.279,0-.3-.01-.26-.146.022-.08.058-.256.081-.39.038-.225.057-.243.26-.243h.219v.389M32.092,70.462v.39h-.656c-.6,0-.652-.01-.61-.114s.14-.392.2-.584c.017-.056.185-.081.546-.081h.522v.39M42.714,70.3c-.722.638-2.252.667-2.3.043l-.02-.274,1.286,0,1.286,0-.256.226m2.366.159v.39H43.755l.233-.244a2.309,2.309,0,0,0,.308-.39c.064-.124.127-.146.43-.146h.355v.39M29.624,72.15c-.069.129-.049.13,1.971.13,2.092,0,2.12,0,2.12-.233a23.632,23.632,0,0,0-4.091.1m4.914-.087c-.2.2-.056.218,2.18.2,2.058-.016,2.225-.026,2.245-.131a27.9,27.9,0,0,0-4.425-.07m5.386.059a.66.66,0,0,0-.039.13c0,.015,1.8.027,4,.027,3.622,0,4-.01,3.961-.1a.676.676,0,0,1-.039-.13c0-.1-7.846-.021-7.883.075m8.87.01c.02.106.181.116,2.25.132,2.1.016,2.227.01,2.206-.1s-.181-.116-2.25-.132c-2.1-.016-2.227-.01-2.206.1m5.274-.01a.66.66,0,0,1,.039.13c0,.015.909.027,2.02.027,1.815,0,2.016-.01,1.981-.1a.675.675,0,0,1-.039-.13c0-.015-.909-.027-2.02-.027-1.815,0-2.016.01-1.981.1m-25.013,1c-.08.129-.065.13,2.088.13,2.114,0,2.169,0,2.2-.13s0-.13-2.088-.13c-2.051,0-2.124,0-2.2.13m5.161,0c-.034.129-.011.131,2.216.114,2.083-.016,2.252-.025,2.272-.131a17.677,17.677,0,0,0-4.488.017m5.514-.028a.66.66,0,0,0-.039.13,38.05,38.05,0,0,0,4.178-.054c.026-.065.034-.065.038,0a7.751,7.751,0,0,0,2.09.081c1.875,0,2.081-.01,2.046-.1a.676.676,0,0,1-.039-.13c0-.1-8.236-.021-8.273.076m9.325.011c.02.105.188.115,2.272.131,2.227.017,2.25.016,2.216-.114a17.677,17.677,0,0,0-4.488-.017m5.39,0c.02.105.183.115,2.151.131,2.116.017,2.128.016,2.059-.114a15.591,15.591,0,0,0-4.209-.017M28.228,74.164c-.117.13-.113.13,2.223.13,2.407,0,2.42,0,2.42-.233a30.6,30.6,0,0,0-4.643.1m5.661-.087c-.2.2-.05.217,2.222.217,2.211,0,2.266,0,2.3-.13a25.871,25.871,0,0,0-4.521-.087m5.581.059a.66.66,0,0,0-.039.13c0,.015.95.027,2.111.027,2.067,0,2.111,0,2.111-.13a16.226,16.226,0,0,0-4.182-.027m4.584.01c.02.106.177.116,2.153.132,2.006.016,2.13.01,2.109-.1s-.177-.116-2.153-.132c-2.006-.016-2.13-.01-2.109.1m5.325,0c.02.106.183.116,2.283.132,2.13.016,2.259.01,2.239-.1s-.183-.116-2.283-.132c-2.13-.016-2.259-.01-2.239.1m5.534-.01a.669.669,0,0,1,.039.13c0,.015,1.038.027,2.306.027,2.29,0,2.305,0,2.225-.13a19.411,19.411,0,0,0-4.57-.027m-27.967.986c-.323.2-.2.21,2.493.21,2.8,0,2.835,0,2.846-.276a41.38,41.38,0,0,0-5.339.066m6.513.011a.628.628,0,0,0-.067.162c0,.02,1.034.037,2.3.037,2.41,0,2.378,0,2.378-.265a25.863,25.863,0,0,0-4.609.066m5.713-.066a.6.6,0,0,1-.039.162c-.036.093.176.1,2.1.1h2.142l.031-.162.031-.162H41.3a17.483,17.483,0,0,0-2.134.06m5.13.1v.162h2.182c1.964,0,2.178-.01,2.143-.1a.591.591,0,0,1-.039-.162,17.629,17.629,0,0,0-2.143-.06H44.3v.162m5.39-.1c0,.269-.032.265,2.377.265,1.264,0,2.3-.016,2.3-.037,0-.287-.007-.288-2.405-.288a19.748,19.748,0,0,0-2.271.06m5.782-.011c.012.273.046.276,2.814.276,2.68,0,2.792-.01,2.439-.211a39.255,39.255,0,0,0-5.253-.065m-22.537,1.12c-.069.129-.049.13,2.3.13,2.433,0,2.445,0,2.445-.233a31.622,31.622,0,0,0-4.741.1m5.884-.027a.65.65,0,0,0-.039.131,29.765,29.765,0,0,0,4.339-.12,18.6,18.6,0,0,0-4.3-.011m5.74.027c0,.127.043.13,2.215.13,1.993,0,2.211-.01,2.175-.1a.675.675,0,0,1-.039-.13c0-.015-.979-.027-2.175-.027-2.132,0-2.176,0-2.176.13m5.546-.027a.676.676,0,0,1,.039.13c0,.015,1.055.027,2.345.027,2.111,0,2.341-.01,2.305-.1a.669.669,0,0,1-.039-.13c0-.015-1.055-.027-2.345-.027-2.112,0-2.341.01-2.305.1M32.352,77.216c-.069.129-.049.13,2.333.13,2.336,0,2.4,0,2.472-.13s.049-.13-2.333-.13c-2.336,0-2.4,0-2.472.13m6.083-.087c-.2.2-.055.218,2.147.2,2.027-.016,2.193-.026,2.213-.131a27.082,27.082,0,0,0-4.36-.07M44.9,77.2c.02.106.181.116,2.25.132,2.1.016,2.227.01,2.206-.1s-.181-.116-2.25-.132c-2.1-.016-2.227-.01-2.206.1m5.7.017c.068.126.136.13,2.405.13,2.292,0,2.336,0,2.336-.13s-.043-.13-2.405-.13c-2.385,0-2.4,0-2.336.13M31.715,78.2a.258.258,0,0,0-.078.13c0,.029,1.107.052,2.461.052,2.533,0,2.54,0,2.54-.233,0-.073-4.849-.023-4.923.051m6.261.025a.66.66,0,0,0-.039.13,28.343,28.343,0,0,0,4.5-.1,18.39,18.39,0,0,0-4.46-.027m7.28.026a18.17,18.17,0,0,0,4.553.017c-.02-.105-.19-.115-2.3-.131-2.259-.017-2.282-.016-2.248.114m5.864-.077c0,.192.188.208,2.548.208s2.392,0,2.323-.13a29.325,29.325,0,0,0-4.871-.078m-20.184,1a.258.258,0,0,0-.078.13c0,.029,1.151.052,2.558.052,2.636,0,2.637,0,2.637-.233,0-.073-5.043-.023-5.118.051m6.546.052c-.069.129-.049.13,2.231.13,2.365,0,2.38,0,2.38-.233a29.952,29.952,0,0,0-4.611.1m8.164,0c.033.127.088.13,2.367.13,2.312,0,2.332,0,2.263-.13s-.136-.13-2.367-.13c-2.265,0-2.3,0-2.263.13m6.058-.078c0,.193.188.208,2.645.208s2.489,0,2.42-.13a31.708,31.708,0,0,0-5.066-.078M36.975,80.216c-.237.237-.147.247,2.26.247a20.913,20.913,0,0,0,2.338-.06.6.6,0,0,1,.039-.162,26.575,26.575,0,0,0-4.637-.025m9.079-.042c0,.288,0,.289,2.442.289H50.8l-.021-.146-.021-.146-2.354-.017c-1.295-.009-2.354,0-2.354.021m-9.7,1.106a.66.66,0,0,0-.039.13c0,.015,1.078.027,2.4.027,2.465,0,2.475,0,2.475-.233a40.725,40.725,0,0,0-4.831.075m10.182,0a.66.66,0,0,1,.039.13c0,.015,1.084.027,2.41.027,2.171,0,2.406-.01,2.37-.1a.66.66,0,0,1-.039-.13c0-.015-1.084-.027-2.41-.027-2.171,0-2.406.01-2.37.1M35.7,82.319a.66.66,0,0,0-.039.13c0,.015,1.107.027,2.461.027,2.533,0,2.54,0,2.54-.233a42.888,42.888,0,0,0-4.961.076m11.338.01c.02.107.193.116,2.51.132,2.346.016,2.487.01,2.466-.1s-.193-.116-2.51-.132c-2.346-.016-2.487-.01-2.466.1m-11.983.97c-.206.207-.063.218,2.472.2,2.336-.016,2.517-.025,2.538-.131a35.75,35.75,0,0,0-5.01-.07m12.5.07c.02.106.2.115,2.577.131,2.316.015,2.551.007,2.515-.087a.676.676,0,0,1-.04-.131c0-.015-1.142-.027-2.537-.027-2.382,0-2.536.007-2.516.114" transform="translate(0)"/><path class="e" d="M162.633,107.87a1.619,1.619,0,0,0,.211.211l.211.191-.191-.211c-.178-.2-.231-.241-.231-.191m-44.326.515-.257.276.276-.257c.257-.239.306-.3.257-.3a2.893,2.893,0,0,0-.276.276" transform="translate(-92.68 -84.86)"/></g></svg>