<svg xmlns="http://www.w3.org/2000/svg" width="38.999" height="38.998" viewBox="0 0 38.999 38.998"><g transform="translate(-14.286 -14.287)"><g transform="translate(14.286 14.287)"><path style="fill:#ffd08d;" d="M39.918,33.962a10.659,10.659,0,1,0,8.431,8.428H44.677a7.231,7.231,0,1,1-4.758-4.754V33.962Z" transform="translate(-20.182 -23.131)"></path><path style="fill:#ff9600;" d="M33.568,24.415A14.223,14.223,0,1,0,46.1,36.949l3.019-3.017A17.794,17.794,0,1,1,36.587,21.4Z" transform="translate(-14.286 -17.235)"></path><path style="fill:#ff9600;" d="M56.882,30l8.2-8.194H60.063L63.3,18.565,60.8,16.06,57.555,19.3V14.287L49.36,22.481V27.5l-4.647,4.648a3.537,3.537,0,1,0,2.638,3.414,3.472,3.472,0,0,0-.132-.907L51.869,30h5.013Z" transform="translate(-26.078 -14.287)"></path></g></g></svg>