<svg version="1.1" id="Calque_1" xmlns="http://www.w3.org/2000/svg" xmlns:xlink="http://www.w3.org/1999/xlink" x="0px" y="0px" viewBox="0 0 40 54" style="enable-background:new 0 0 40 54;" xml:space="preserve" width="38.999" height="53.47" class="picto-saving">
<g>
<linearGradient id="SVGID_1_" gradientUnits="userSpaceOnUse" x1="20" y1="53.715" x2="20" y2="0.2278" gradientTransform="matrix(1 0 0 -1 0 53.89)">
<stop offset="0" style="stop-color:#FF6917"></stop>
<stop offset="1" style="stop-color:#FF9B00"></stop>
</linearGradient>
<path style="fill:url(#SVGID_1_);" d="M12.9,39.7c0,2.7,2.8,4.8,6.5,4.8s6.5-2.1,6.5-4.8s-2.8-4.8-6.5-4.8S12.9,37,12.9,39.7z M15.1,39.7
		c0-1.5,1.9-2.7,4.3-2.7s4.3,1.2,4.3,2.7s-1.9,2.6-4.3,2.6C17,42.4,15.1,41.2,15.1,39.7z M12.5,33.1c0-0.7,0.6-1.2,1.2-1.2
		s1.2,0.6,1.2,1.2s-0.6,1.2-1.2,1.2S12.5,33.8,12.5,33.1z M23.5,33.1c0-0.7,0.6-1.2,1.2-1.2s1.2,0.6,1.2,1.2s-0.6,1.2-1.2,1.2
		S23.5,33.8,23.5,33.1z M16.8,40.4c-0.7,0-1.2-0.3-1.2-0.8s0.4-0.7,1.2-0.7s1.2,0.3,1.2,0.8S17.5,40.4,16.8,40.4z M20.5,39.6
		c0-0.4,0.5-0.8,1.2-0.8s1.2,0.3,1.2,0.8s-0.5,0.8-1.2,0.8S20.5,40.1,20.5,39.6z M39.5,21.8v-0.1l-0.1-0.1c-1.5-1.7-3.6-2.7-5.9-2.8
		c-0.4,0-0.8,0-1.1,0.1c1.2-3.3,1.2-6.9-0.2-10.2c-1.4-3.4-4.1-6.1-7.6-7.5s-7.2-1.4-10.6,0S7.9,5.3,6.5,8.8
		c-1.3,3.2-1.4,6.7-0.2,10c-2.2,0.1-4.3,1.1-5.7,2.8l-0.1,0.1v0.1C0.7,24,1.4,26.1,2.7,28c-2.6,5.7-2,12.3,1.8,17.4l0.3,4.8
		c0,1.9,1.5,3.4,3.4,3.6c1.6-0.1,3.1-1,3.8-2.4c4.8,2,10.2,2,14.9,0c0.8,1.4,2.2,2.3,3.9,2.4c1.9-0.1,3.3-1.7,3.4-3.6l0.3-4.8
		c3.5-4.7,4.3-11,2.2-16.4C39.2,26.5,39.5,21.9,39.5,21.8z M31.2,21.6c0.7-0.4,1.5-0.7,2.4-0.7c1.4,0.1,2.7,0.6,3.7,1.5
		c-0.2,1.6-0.8,3-1.7,4.3C34.4,24.8,32.9,23.1,31.2,21.6z M3.8,25.8c-0.5-1-0.9-2.2-1.1-3.3C3.7,21.6,5,21,6.4,21
		c0.3,0,0.6,0,0.9,0.1c0.1,0.2,0.2,0.4,0.3,0.5C6.2,22.8,4.9,24.2,3.8,25.8z M19.4,25.8c-6.5,0-11.8-5.3-11.8-11.7
		c0-6.5,5.3-11.7,11.8-11.8c6.5,0,11.8,5.3,11.8,11.8C31.1,20.6,25.9,25.8,19.4,25.8z M9,23.3c0.9,1,1.9,1.8,3,2.5h-1.3
		c-0.6,0-1.1,0.5-1,1.1c0,0.6,0.5,1,1,1h17.4c0.6,0,1.1-0.5,1-1.1c0-0.6-0.5-1-1-1h-1.3c1.1-0.7,2.1-1.5,3-2.5
		c3.6,2.9,5.7,7.2,5.7,11.8c0,8.5-7.2,15.5-16.1,15.5h-0.2l0,0c-8.8-0.1-16-7-16-15.5C3.3,30.5,5.3,26.2,9,23.3z M10,50.3
		c-0.4,0.7-1.1,1.2-1.9,1.2c-0.7-0.1-1.3-0.8-1.3-1.5l-0.1-2.1C7.7,48.8,8.8,49.6,10,50.3z M31.9,50c0,0.8-0.5,1.4-1.2,1.5
		c-0.8,0-1.5-0.5-1.9-1.2c1.2-0.7,2.3-1.5,3.3-2.4L32,49.2l-0.1-0.1L31.9,50z"></path>
<g>
<linearGradient id="SVGID_00000100380562641616670530000005311555597465585296_" gradientUnits="userSpaceOnUse" x1="19" y1="8.988" x2="19" y2="19.2642">
<stop offset="0" style="stop-color:#FF6917"></stop>
<stop offset="1" style="stop-color:#FF9B00"></stop>
</linearGradient>
<path style="fill:url(#SVGID_00000100380562641616670530000005311555597465585296_);" d="M21.1,17.1c0.4-0.2,0.7-0.6,1-1.1h2.3
			c-0.3,1-0.9,1.8-1.8,2.4c-0.8,0.6-1.8,0.9-2.9,0.9c-1.2,0-2.2-0.3-3-0.9c-0.9-0.6-1.5-1.4-1.8-2.5h-1.2v-1.2h1c0-0.2,0-0.4,0-0.5
			c0-0.1,0-0.3,0-0.5h-1v-1.2h1.2c0.3-1,0.9-1.9,1.8-2.5c0.9-0.6,1.9-0.9,3-0.9c1.1,0,2.1,0.3,2.9,0.9s1.4,1.4,1.8,2.4h-2.3
			c-0.2-0.5-0.6-0.8-1-1c-0.4-0.2-0.9-0.4-1.4-0.4c-0.6,0-1.1,0.1-1.6,0.4c-0.5,0.3-0.8,0.6-1.1,1.1h2.8v1.2h-3.1c0,0.2,0,0.4,0,0.5
			c0,0.1,0,0.3,0,0.5h3.1v1.2H17c0.2,0.5,0.6,0.9,1.1,1.2c0.5,0.3,1,0.4,1.6,0.4C20.2,17.4,20.7,17.3,21.1,17.1z"></path>
</g>
</g>
</svg>