<?xml version="1.0" encoding="utf-8"?>
<!-- Generator: Adobe Illustrator 25.4.1, SVG Export Plug-In . SVG Version: 6.00 Build 0)  -->
<svg version="1.1" id="Calque_1" xmlns="http://www.w3.org/2000/svg" xmlns:xlink="http://www.w3.org/1999/xlink" x="0px" y="0px"
	 viewBox="0 0 186 47" style="enable-background:new 0 0 186 47;" xml:space="preserve">
<style type="text/css">
	.st0{fill-rule:evenodd;clip-rule:evenodd;fill:#1D1D1B;}
	.st1{fill:#0584CA;}
</style>
<g>
	<path class="st0" d="M0.5,7.7h5.6v2.5C6.9,9.2,7.7,8.4,8.5,8c0.9-0.5,1.9-0.7,3-0.7c1.2,0,2.2,0.2,3,0.7c0.8,0.6,1.4,1.3,1.8,2.2
		c0.9-1.1,1.8-1.9,2.6-2.3c0.9-0.4,1.9-0.6,2.9-0.6c1.7,0,3,0.5,3.9,1.6c0.9,1.1,1.4,2.8,1.4,5.2V25h-6v-9.8c0-0.8-0.1-1.4-0.4-1.7
		c-0.4-0.6-0.9-0.9-1.5-0.9c-0.7,0-1.3,0.3-1.7,0.8c-0.4,0.6-0.6,1.5-0.6,2.7V25h-6v-9.5c0-0.8,0-1.3-0.1-1.5
		c-0.1-0.4-0.3-0.8-0.7-1.1c-0.3-0.3-0.7-0.4-1.1-0.4c-0.7,0-1.3,0.3-1.7,0.9c-0.4,0.6-0.7,1.5-0.7,2.8V25h-6V7.7z"/>
	<path class="st0" d="M45.8,17.2c0-2.3-0.3-4.1-1-5.5c-0.6-1.4-1.6-2.5-2.9-3.2c-1.3-0.7-3.1-1.1-5.3-1.1c-2.7,0-4.9,0.8-6.5,2.5
		s-2.3,3.8-2.3,6.5c0,1.9,0.4,3.5,1.2,4.9c0.8,1.4,1.8,2.4,2.9,3.1c1.2,0.6,2.8,1,4.9,1c2.4,0,4.2-0.4,5.5-1.1
		c1.3-0.8,2.4-2,3.3-3.7l-5.9-0.6c-0.3,0.4-0.6,0.8-1,1.1c-0.5,0.3-1.1,0.5-1.7,0.5c-0.9,0-1.7-0.4-2.3-1.1C34.2,19.8,34,19,33.9,18
		h12L45.8,17.2z M33.9,14.8c0.1-1,0.3-1.8,0.7-2.3c0.5-0.8,1.3-1.3,2.3-1.3c0.8,0,1.5,0.3,2,0.8c0.5,0.6,0.8,1.5,0.9,2.7H33.9z"/>
	<path class="st0" d="M52.9,7.7V25h-6V7.7c0.9,0.5,2,0.7,3,0.7C51,8.4,52,8.2,52.9,7.7"/>
	<path class="st0" d="M54.8,25h6V1.1h-6V25z"/>
	<path class="st0" d="M62.8,25h6V1.1h-6V25z"/>
	<path class="st0" d="M87.9,17.2c0-2.3-0.3-4.1-1-5.5c-0.6-1.4-1.7-2.5-3-3.2c-1.3-0.7-3.1-1.1-5.3-1.1c-2.7,0-4.9,0.8-6.5,2.5
		s-2.3,3.9-2.3,6.5c0,1.9,0.4,3.5,1.2,4.9c0.8,1.4,1.8,2.4,2.9,3.1c1.2,0.6,2.8,1,4.9,1c2.4,0,4.2-0.4,5.5-1.1
		c1.3-0.8,2.4-2,3.3-3.7l-5.9-0.6c-0.3,0.4-0.6,0.8-1,1.1c-0.5,0.3-1.1,0.5-1.7,0.5c-0.9,0-1.7-0.4-2.3-1.1
		c-0.4-0.5-0.7-1.3-0.8-2.4h12L87.9,17.2z M76,14.8c0.1-1,0.3-1.8,0.7-2.3c0.6-0.8,1.3-1.3,2.3-1.3c0.8,0,1.5,0.3,2,0.8
		c0.5,0.6,0.8,1.5,0.9,2.7H76z"/>
	<path class="st0" d="M105.1,25h-5.6v-2.8c-0.8,1.1-1.7,2-2.5,2.4c-0.8,0.5-1.9,0.7-3.1,0.7c-1.6,0-2.9-0.5-3.9-1.6s-1.4-2.8-1.4-5
		v-11h6v9.5c0,1.1,0.2,1.8,0.5,2.3c0.4,0.5,0.9,0.7,1.5,0.7c0.7,0,1.4-0.3,1.7-0.9c0.4-0.6,0.7-1.7,0.7-3.3V7.7h6V25z"/>
	<path class="st0" d="M106.8,7.7h5.6v2.8c0.5-1.2,1.1-2.1,1.7-2.5c0.6-0.5,1.4-0.7,2.1-0.7c0.9,0,1.8,0.3,2.9,0.9l-1.9,4.7
		c-0.7-0.3-1.3-0.5-1.7-0.5c-0.8,0-1.5,0.4-1.8,1.1c-0.6,1-0.9,2.9-0.9,5.7V25h-6V7.7z"/>
	<path class="st0" d="M125.8,1.1v6.5h3.3v4.9h-3.3v6.1c0,0.7,0.1,1.2,0.2,1.5c0.2,0.4,0.5,0.6,1,0.6c0.6,0,1.3-0.2,1.8-0.4l0.4,4.6
		c-1.4,0.3-2.7,0.5-4.1,0.5c-1.5,0-2.6-0.2-3.3-0.6c-0.7-0.4-1.3-1.1-1.6-1.9c-0.3-0.9-0.5-2.3-0.5-4.2v-6.1h-2.2V7.7h2.2V4.5
		L125.8,1.1z"/>
	<path class="st0" d="M136.3,11.7c0.5-0.3,1.2-0.5,2.2-0.5c0.8,0,1.3,0.2,1.6,0.5s0.5,0.9,0.5,1.7c-0.7,0.3-1.4,0.6-2.1,0.8
		c-0.7,0.2-2.1,0.6-4.4,1.1c-1.9,0.4-3.1,1-3.8,1.9c-0.7,0.8-1,1.9-1,3.2c0,1.3,0.5,2.6,1.4,3.5c1,1,2.4,1.4,4.2,1.4
		c1.3,0,2.5-0.2,3.7-0.7c0.9-0.4,1.7-1,2.3-1.8c0,0.4,0.1,0.7,0.2,1.1c0.1,0.3,0.3,0.7,0.4,1h5.6c-0.3-0.6-0.5-1.2-0.6-1.8
		c-0.1-0.6-0.1-1.3-0.1-1.9v-7.6c0-0.9-0.2-1.7-0.4-2.6c-0.3-0.9-0.7-1.6-1.2-2.1C144,8.3,143,7.8,142,7.6c-1.1-0.2-2.5-0.3-4.3-0.3
		c-1,0-2.1,0.1-3.1,0.3c-0.8,0.1-1.6,0.4-2.3,0.8c-0.7,0.4-1.3,1-1.8,1.6c-0.4,0.6-0.7,1.5-0.9,2.6l5.7,0.7
		C135.6,12.5,135.9,12,136.3,11.7L136.3,11.7z M140.5,17.8c0,0.7-0.1,1.4-0.4,2c-0.3,0.5-0.7,1-1.2,1.3c-0.6,0.4-1.2,0.5-1.9,0.5
		c-0.6,0-1.1-0.2-1.4-0.5c-0.7-0.7-0.7-1.8,0-2.5c0.3-0.3,1.1-0.7,2.3-1.1c0.9-0.2,1.7-0.5,2.6-0.9L140.5,17.8z"/>
	<path class="st0" d="M164.4,25h-5.6v-2.8c-0.8,1.1-1.7,2-2.5,2.4c-0.8,0.5-1.9,0.7-3.1,0.7c-1.6,0-2.9-0.5-3.9-1.6
		c-0.9-1.1-1.4-2.8-1.4-5v-11h6v9.5c0,1.1,0.2,1.8,0.5,2.3c0.4,0.5,0.9,0.7,1.5,0.7c0.7,0,1.4-0.3,1.7-0.9c0.5-0.6,0.7-1.7,0.7-3.3
		V7.7h6L164.4,25z"/>
	<path class="st0" d="M165.7,7.7h7.1l2.5,4.8l2.9-4.8h6.6l-5.3,8.2l5.7,9h-7l-2.9-5.6l-3.4,5.6h-6.5l5.7-9L165.7,7.7z"/>
	<circle class="st1" cx="49.8" cy="3.5" r="3.3"/>
	<path class="st1" d="M74.2,35.9c0,0.9-0.2,1.7-0.6,2.5c-0.5,0.8-1.1,1.4-1.9,1.8c-0.9,0.5-2,0.7-3.2,0.7H66v5.7h-3.9V30.8h6.2
		c1.3,0,2.3,0.2,3.2,0.7c0.8,0.4,1.5,1,2,1.8C74,34.1,74.2,35,74.2,35.9z M68.1,37.9c0.7,0,1.3-0.2,1.6-0.5c0.4-0.3,0.5-0.8,0.5-1.5
		c0-0.6-0.2-1.1-0.5-1.5c-0.4-0.3-0.9-0.5-1.6-0.5H66v4L68.1,37.9z"/>
	<path class="st1" d="M80,30v16.7h-3.9V30H80z"/>
	<path class="st1" d="M82.1,40.3c0-1.2,0.2-2.3,0.7-3.4c0.4-0.9,1.1-1.7,2-2.3c0.8-0.5,1.8-0.8,2.8-0.8c0.8,0,1.6,0.2,2.3,0.5
		c0.6,0.3,1.2,0.8,1.6,1.4V34h3.9v12.6h-3.9v-1.8c-0.4,0.6-0.9,1.1-1.6,1.4c-0.7,0.4-1.5,0.6-2.3,0.5c-1,0-2-0.3-2.8-0.8
		c-0.9-0.6-1.6-1.3-2-2.3C82.3,42.6,82,41.5,82.1,40.3z M91.5,40.3c0-1-0.3-1.7-0.8-2.3c-0.5-0.5-1.2-0.8-1.9-0.8
		c-0.7,0-1.5,0.3-2,0.8c-0.5,0.5-0.8,1.3-0.8,2.3s0.3,1.7,0.8,2.3c0.5,0.5,1.2,0.8,2,0.8c0.7,0,1.4-0.3,1.9-0.8
		C91.2,42.1,91.5,41.3,91.5,40.3z"/>
	<path class="st1" d="M97.3,40.3c0-1.2,0.2-2.4,0.8-3.4c0.5-0.9,1.3-1.7,2.2-2.3c1-0.5,2.1-0.8,3.3-0.8c1.6,0,2.9,0.4,3.9,1.2
		c1.1,0.8,1.7,2,2.1,3.5h-4.1c-0.3-1-1-1.4-2-1.4c-0.7,0-1.3,0.3-1.7,0.8c-0.4,0.5-0.6,1.3-0.6,2.3s0.2,1.8,0.6,2.4
		c0.4,0.5,1,0.8,1.7,0.8c1,0,1.7-0.5,2-1.4h4.1c-0.3,1.5-1,2.6-2.1,3.5c-1.1,0.8-2.4,1.3-3.9,1.3c-1.1,0-2.3-0.3-3.3-0.8
		c-0.9-0.5-1.7-1.3-2.2-2.3C97.6,42.7,97.3,41.5,97.3,40.3z"/>
	<path class="st1" d="M123.6,40.1c0,0.4,0,0.8-0.1,1.1h-8.7c0.1,0.8,0.3,1.4,0.7,1.8c0.5,0.4,1,0.6,1.6,0.6c1,0,1.6-0.4,2-1.2h4.1
		c-0.4,1.7-1.6,3.1-3.2,3.8c-0.9,0.4-1.8,0.6-2.8,0.6c-1.1,0-2.3-0.3-3.3-0.8c-1-0.5-1.7-1.3-2.3-2.3c-0.6-1.1-0.8-2.2-0.8-3.4
		c0-1.2,0.2-2.4,0.8-3.4c0.5-1,1.3-1.7,2.3-2.3c2.1-1,4.5-1.1,6.5,0c0.9,0.5,1.7,1.3,2.2,2.2C123.3,37.8,123.6,39,123.6,40.1z
		 M119.6,39.1c0-0.6-0.2-1.2-0.7-1.6c-1-0.8-2.3-0.8-3.3,0c-0.5,0.4-0.7,1-0.8,1.6H119.6z"/>
	<path class="st1" d="M141.6,33.9c1.6,0,2.8,0.5,3.7,1.4c0.9,0.9,1.4,2.3,1.4,3.9v7.3h-3.8v-6.8c0-0.8-0.2-1.4-0.7-1.9
		c-0.4-0.4-1-0.7-1.8-0.7c-0.7,0-1.3,0.2-1.8,0.7c-0.4,0.4-0.6,1.1-0.6,1.9v6.8h-3.8v-6.8c0-0.8-0.2-1.4-0.7-1.9s-1-0.7-1.8-0.7
		c-0.7,0-1.3,0.2-1.8,0.7c-0.4,0.4-0.6,1.1-0.6,1.9v6.8h-3.9V34.1h3.9v1.6c0.4-0.5,0.9-1,1.5-1.2c0.7-0.3,1.4-0.5,2.1-0.5
		c0.9,0,1.8,0.2,2.5,0.6c0.7,0.4,1.4,1,1.8,1.7c0.4-0.7,1.1-1.3,1.8-1.7C139.9,34.1,140.8,33.9,141.6,33.9z"/>
	<path class="st1" d="M161.3,40.1c0,0.4,0,0.8-0.1,1.1h-8.7c0.1,0.8,0.3,1.4,0.7,1.8c0.5,0.4,1,0.6,1.6,0.6c1,0,1.6-0.4,2-1.2h4.1
		c-0.4,1.7-1.6,3.1-3.2,3.8c-0.9,0.4-1.8,0.6-2.8,0.6c-1.1,0-2.3-0.3-3.3-0.8c-1-0.5-1.7-1.3-2.3-2.3c-0.6-1.1-0.8-2.2-0.8-3.4
		c0-1.2,0.2-2.4,0.8-3.4c0.5-1,1.3-1.7,2.3-2.3c2.1-1,4.5-1.1,6.5,0c0.9,0.5,1.7,1.3,2.2,2.2C161,37.8,161.3,39,161.3,40.1z
		 M157.4,39.1c0-0.6-0.2-1.2-0.7-1.6c-1-0.8-2.3-0.8-3.3,0c-0.5,0.4-0.7,1-0.8,1.6H157.4z"/>
	<path class="st1" d="M171,33.9c1.5,0,2.6,0.5,3.5,1.4c0.9,1,1.3,2.3,1.3,3.9v7.3H172v-6.8c0-0.8-0.2-1.5-0.7-2
		c-1-0.9-2.5-0.9-3.5,0c-0.4,0.5-0.7,1.1-0.7,2v6.8h-3.9V34.1h3.9v1.7c0.4-0.6,0.9-1,1.6-1.3C169.4,34.1,170.2,33.9,171,33.9z"/>
	<path class="st1" d="M185.5,43.4v3.3h-2c-1.4,0-2.5-0.3-3.3-1c-0.8-0.7-1.2-1.8-1.2-3.4v-5h-1.5v-3.2h1.5V31h3.9v3.1h2.5v3.2H183v5
		c0,0.3,0.1,0.6,0.3,0.8c0.2,0.2,0.5,0.2,0.9,0.2L185.5,43.4z"/>
</g>
</svg>
